<svg width="95" height="92" viewBox="0 0 95 92" fill="none" xmlns="http://www.w3.org/2000/svg">
<path d="M18.1318 47.8789C19.2796 58.2066 24.3809 65.9601 33.6589 70.9223C38.9515 73.7446 44.7223 74.737 50.6207 73.9306C64.713 71.9768 74.8518 61.6801 75.9677 48.1891C76.6054 40.4356 74.2142 33.4885 68.9216 27.5958C63.629 21.7032 56.8379 18.6638 48.8033 17.8264C48.8033 12.0888 48.8033 6.47531 48.8033 0.923813C57.6031 -0.347758 76.4141 5.60692 86.7442 21.5171C97.8395 38.5747 96.2773 60.5946 82.727 75.7605C67.6781 92.57 43.8615 96.2917 24.4766 86.0261C15.7406 81.405 9.17267 74.644 4.80469 65.929C1.99898 60.3155 0.436705 54.3608 0.181641 47.8789C6.27131 47.8789 12.1059 47.8789 18.1318 47.8789Z" fill="#C4C4C4"/>
<path d="M45.4179 17.6594C29.574 19.995 20.4885 28.7227 18.1614 44.0268C12.2638 44.0268 6.39804 44.0268 0.181641 44.0268C0.596067 33.0865 4.51718 23.6828 11.9131 15.6312C20.7436 6.04308 31.9012 1.00317 45.4179 0.265625C45.4179 6.19673 45.4179 11.8205 45.4179 17.6594Z" fill="#11D5D5"/>
</svg>
